<svg xmlns="http://www.w3.org/2000/svg" viewBox="0 0 640 400" width="640" height="400" role="img" aria-label="Capa do portfólio de Andressa Almada">
  <defs>
    <linearGradient id="g-andressa-almada" x1="0" y1="0" x2="1" y2="1">
      <stop offset="0" stop-color="hsl(138 72% 56%)"/>
      <stop offset="1" stop-color="hsl(195 72% 42%)"/>
    </linearGradient>
    <filter id="s-andressa-almada" x="-20%" y="-20%" width="140%" height="140%">
      <feDropShadow dx="0" dy="6" stdDeviation="10" flood-color="#000000" flood-opacity="0.28"/>
    </filter>
  </defs>
  <rect width="640" height="400" fill="url(#g-andressa-almada)"/>
  <circle cx="182" cy="128" r="110" fill="hsl(29 85% 75%)" opacity="0.21"/>
  <circle cx="446" cy="355" r="146" fill="hsl(273 85% 71%)" opacity="0.2"/>
  <circle cx="34" cy="60" r="108" fill="hsl(300 85% 75%)" opacity="0.36"/>
  <circle cx="290" cy="40" r="72" fill="hsl(348 85% 66%)" opacity="0.39"/>
  <circle cx="101" cy="84" r="128" fill="hsl(19 85% 64%)" opacity="0.34"/>
  <circle cx="344" cy="341" r="3" fill="#ffffff" opacity="0.38"/>
  <circle cx="362" cy="35" r="6" fill="#ffffff" opacity="0.39"/>
  <circle cx="342" cy="82" r="6" fill="#ffffff" opacity="0.51"/>
  <circle cx="627" cy="331" r="3" fill="#ffffff" opacity="0.56"/>
  <circle cx="43" cy="55" r="5" fill="#ffffff" opacity="0.5"/>
  <circle cx="34" cy="257" r="6" fill="#ffffff" opacity="0.52"/>
  <circle cx="468" cy="321" r="6" fill="#ffffff" opacity="0.35"/>
  <circle cx="368" cy="38" r="5" fill="#ffffff" opacity="0.38"/>
  <circle cx="265" cy="302" r="2" fill="#ffffff" opacity="0.3"/>
  <circle cx="24" cy="166" r="7" fill="#ffffff" opacity="0.63"/>
  <circle cx="573" cy="94" r="6" fill="#ffffff" opacity="0.56"/>
  <circle cx="153" cy="205" r="4" fill="#ffffff" opacity="0.37"/>
  <circle cx="240" cy="247" r="5" fill="#ffffff" opacity="0.28"/>
  <circle cx="159" cy="317" r="2" fill="#ffffff" opacity="0.52"/>
  <text x="320" y="200" text-anchor="middle" dominant-baseline="central"
    font-family="'Trebuchet MS', Verdana, sans-serif" font-weight="800"
    font-size="190" fill="#ffffff" filter="url(#s-andressa-almada)">AA</text>
</svg>
