<svg xmlns="http://www.w3.org/2000/svg" viewBox="0 0 640 400" width="640" height="400" role="img" aria-label="Capa do portfólio de Arthur Prates">
  <defs>
    <linearGradient id="g-arthur-prates" x1="0" y1="0" x2="1" y2="1">
      <stop offset="0" stop-color="hsl(0 72% 56%)"/>
      <stop offset="1" stop-color="hsl(49 72% 42%)"/>
    </linearGradient>
    <filter id="s-arthur-prates" x="-20%" y="-20%" width="140%" height="140%">
      <feDropShadow dx="0" dy="6" stdDeviation="10" flood-color="#000000" flood-opacity="0.28"/>
    </filter>
  </defs>
  <rect width="640" height="400" fill="url(#g-arthur-prates)"/>
  <circle cx="423" cy="202" r="122" fill="hsl(59 85% 79%)" opacity="0.29"/>
  <circle cx="508" cy="374" r="168" fill="hsl(34 85% 69%)" opacity="0.24"/>
  <circle cx="173" cy="139" r="170" fill="hsl(337 85% 79%)" opacity="0.21"/>
  <circle cx="569" cy="288" r="74" fill="hsl(130 85% 62%)" opacity="0.22"/>
  <circle cx="41" cy="306" r="143" fill="hsl(81 85% 78%)" opacity="0.22"/>
  <circle cx="255" cy="65" r="5" fill="#ffffff" opacity="0.35"/>
  <circle cx="157" cy="31" r="6" fill="#ffffff" opacity="0.54"/>
  <circle cx="186" cy="218" r="6" fill="#ffffff" opacity="0.6"/>
  <circle cx="508" cy="67" r="6" fill="#ffffff" opacity="0.28"/>
  <circle cx="338" cy="57" r="4" fill="#ffffff" opacity="0.42"/>
  <circle cx="564" cy="384" r="3" fill="#ffffff" opacity="0.41"/>
  <circle cx="469" cy="241" r="4" fill="#ffffff" opacity="0.38"/>
  <circle cx="611" cy="287" r="3" fill="#ffffff" opacity="0.41"/>
  <circle cx="535" cy="337" r="4" fill="#ffffff" opacity="0.43"/>
  <circle cx="260" cy="126" r="2" fill="#ffffff" opacity="0.46"/>
  <circle cx="403" cy="266" r="5" fill="#ffffff" opacity="0.62"/>
  <circle cx="438" cy="140" r="3" fill="#ffffff" opacity="0.36"/>
  <circle cx="457" cy="394" r="4" fill="#ffffff" opacity="0.57"/>
  <circle cx="612" cy="123" r="7" fill="#ffffff" opacity="0.31"/>
  <text x="320" y="200" text-anchor="middle" dominant-baseline="central"
    font-family="'Trebuchet MS', Verdana, sans-serif" font-weight="800"
    font-size="190" fill="#ffffff" filter="url(#s-arthur-prates)">AP</text>
</svg>
