<svg xmlns="http://www.w3.org/2000/svg" viewBox="0 0 640 400" width="640" height="400" role="img" aria-label="Capa do portfólio de Bernardo Bender">
  <defs>
    <linearGradient id="g-bernardo-bender" x1="0" y1="0" x2="1" y2="1">
      <stop offset="0" stop-color="hsl(315 72% 56%)"/>
      <stop offset="1" stop-color="hsl(29 72% 42%)"/>
    </linearGradient>
    <filter id="s-bernardo-bender" x="-20%" y="-20%" width="140%" height="140%">
      <feDropShadow dx="0" dy="6" stdDeviation="10" flood-color="#000000" flood-opacity="0.28"/>
    </filter>
  </defs>
  <rect width="640" height="400" fill="url(#g-bernardo-bender)"/>
  <circle cx="598" cy="150" r="75" fill="hsl(347 85% 75%)" opacity="0.33"/>
  <circle cx="26" cy="82" r="77" fill="hsl(87 85% 69%)" opacity="0.26"/>
  <circle cx="593" cy="135" r="71" fill="hsl(272 85% 62%)" opacity="0.2"/>
  <circle cx="4" cy="285" r="146" fill="hsl(270 85% 78%)" opacity="0.25"/>
  <circle cx="396" cy="261" r="82" fill="hsl(133 85% 78%)" opacity="0.29"/>
  <circle cx="624" cy="342" r="2" fill="#ffffff" opacity="0.47"/>
  <circle cx="88" cy="360" r="6" fill="#ffffff" opacity="0.35"/>
  <circle cx="189" cy="61" r="5" fill="#ffffff" opacity="0.42"/>
  <circle cx="494" cy="247" r="2" fill="#ffffff" opacity="0.56"/>
  <circle cx="483" cy="243" r="2" fill="#ffffff" opacity="0.31"/>
  <circle cx="377" cy="146" r="7" fill="#ffffff" opacity="0.29"/>
  <circle cx="536" cy="149" r="5" fill="#ffffff" opacity="0.51"/>
  <circle cx="33" cy="99" r="3" fill="#ffffff" opacity="0.52"/>
  <circle cx="588" cy="303" r="4" fill="#ffffff" opacity="0.51"/>
  <circle cx="412" cy="312" r="4" fill="#ffffff" opacity="0.57"/>
  <circle cx="166" cy="100" r="3" fill="#ffffff" opacity="0.6"/>
  <circle cx="357" cy="83" r="4" fill="#ffffff" opacity="0.32"/>
  <circle cx="345" cy="194" r="4" fill="#ffffff" opacity="0.34"/>
  <circle cx="166" cy="164" r="4" fill="#ffffff" opacity="0.38"/>
  <text x="320" y="200" text-anchor="middle" dominant-baseline="central"
    font-family="'Trebuchet MS', Verdana, sans-serif" font-weight="800"
    font-size="190" fill="#ffffff" filter="url(#s-bernardo-bender)">BB</text>
</svg>
