<svg xmlns="http://www.w3.org/2000/svg" viewBox="0 0 640 400" width="640" height="400" role="img" aria-label="Capa do portfólio de Diogo">
  <defs>
    <linearGradient id="g-diogo" x1="0" y1="0" x2="1" y2="1">
      <stop offset="0" stop-color="hsl(275 72% 56%)"/>
      <stop offset="1" stop-color="hsl(317 72% 42%)"/>
    </linearGradient>
    <filter id="s-diogo" x="-20%" y="-20%" width="140%" height="140%">
      <feDropShadow dx="0" dy="6" stdDeviation="10" flood-color="#000000" flood-opacity="0.28"/>
    </filter>
  </defs>
  <rect width="640" height="400" fill="url(#g-diogo)"/>
  <circle cx="357" cy="49" r="165" fill="hsl(326 85% 72%)" opacity="0.39"/>
  <circle cx="249" cy="77" r="81" fill="hsl(235 85% 62%)" opacity="0.21"/>
  <circle cx="523" cy="262" r="129" fill="hsl(137 85% 67%)" opacity="0.2"/>
  <circle cx="552" cy="136" r="113" fill="hsl(254 85% 74%)" opacity="0.27"/>
  <circle cx="535" cy="306" r="149" fill="hsl(216 85% 65%)" opacity="0.4"/>
  <circle cx="604" cy="275" r="5" fill="#ffffff" opacity="0.49"/>
  <circle cx="354" cy="71" r="2" fill="#ffffff" opacity="0.51"/>
  <circle cx="537" cy="96" r="2" fill="#ffffff" opacity="0.38"/>
  <circle cx="255" cy="250" r="5" fill="#ffffff" opacity="0.64"/>
  <circle cx="462" cy="134" r="5" fill="#ffffff" opacity="0.6"/>
  <circle cx="438" cy="157" r="4" fill="#ffffff" opacity="0.36"/>
  <circle cx="25" cy="379" r="4" fill="#ffffff" opacity="0.33"/>
  <circle cx="61" cy="252" r="4" fill="#ffffff" opacity="0.38"/>
  <circle cx="549" cy="42" r="5" fill="#ffffff" opacity="0.39"/>
  <circle cx="468" cy="314" r="4" fill="#ffffff" opacity="0.59"/>
  <circle cx="550" cy="212" r="6" fill="#ffffff" opacity="0.45"/>
  <circle cx="151" cy="295" r="4" fill="#ffffff" opacity="0.45"/>
  <circle cx="579" cy="307" r="2" fill="#ffffff" opacity="0.61"/>
  <circle cx="462" cy="157" r="7" fill="#ffffff" opacity="0.29"/>
  <text x="320" y="200" text-anchor="middle" dominant-baseline="central"
    font-family="'Trebuchet MS', Verdana, sans-serif" font-weight="800"
    font-size="190" fill="#ffffff" filter="url(#s-diogo)">DI</text>
</svg>
