<svg xmlns="http://www.w3.org/2000/svg" viewBox="0 0 640 400" width="640" height="400" role="img" aria-label="Capa do portfólio de Eduardo Moura">
  <defs>
    <linearGradient id="g-eduardo-moura" x1="0" y1="0" x2="1" y2="1">
      <stop offset="0" stop-color="hsl(53 72% 56%)"/>
      <stop offset="1" stop-color="hsl(95 72% 42%)"/>
    </linearGradient>
    <filter id="s-eduardo-moura" x="-20%" y="-20%" width="140%" height="140%">
      <feDropShadow dx="0" dy="6" stdDeviation="10" flood-color="#000000" flood-opacity="0.28"/>
    </filter>
  </defs>
  <rect width="640" height="400" fill="url(#g-eduardo-moura)"/>
  <circle cx="212" cy="47" r="164" fill="hsl(166 85% 67%)" opacity="0.24"/>
  <circle cx="445" cy="308" r="157" fill="hsl(26 85% 69%)" opacity="0.25"/>
  <circle cx="464" cy="272" r="136" fill="hsl(159 85% 63%)" opacity="0.29"/>
  <circle cx="254" cy="354" r="102" fill="hsl(76 85% 77%)" opacity="0.26"/>
  <circle cx="429" cy="219" r="143" fill="hsl(8 85% 75%)" opacity="0.27"/>
  <circle cx="299" cy="138" r="6" fill="#ffffff" opacity="0.62"/>
  <circle cx="197" cy="368" r="5" fill="#ffffff" opacity="0.65"/>
  <circle cx="577" cy="82" r="5" fill="#ffffff" opacity="0.56"/>
  <circle cx="203" cy="254" r="3" fill="#ffffff" opacity="0.28"/>
  <circle cx="336" cy="342" r="4" fill="#ffffff" opacity="0.63"/>
  <circle cx="67" cy="93" r="6" fill="#ffffff" opacity="0.5"/>
  <circle cx="513" cy="322" r="7" fill="#ffffff" opacity="0.31"/>
  <circle cx="619" cy="329" r="2" fill="#ffffff" opacity="0.26"/>
  <circle cx="267" cy="241" r="4" fill="#ffffff" opacity="0.58"/>
  <circle cx="179" cy="304" r="6" fill="#ffffff" opacity="0.4"/>
  <circle cx="126" cy="173" r="4" fill="#ffffff" opacity="0.31"/>
  <circle cx="70" cy="283" r="3" fill="#ffffff" opacity="0.26"/>
  <circle cx="210" cy="253" r="4" fill="#ffffff" opacity="0.41"/>
  <circle cx="570" cy="315" r="5" fill="#ffffff" opacity="0.31"/>
  <text x="320" y="200" text-anchor="middle" dominant-baseline="central"
    font-family="'Trebuchet MS', Verdana, sans-serif" font-weight="800"
    font-size="190" fill="#ffffff" filter="url(#s-eduardo-moura)">EM</text>
</svg>
