<svg xmlns="http://www.w3.org/2000/svg" viewBox="0 0 640 400" width="640" height="400" role="img" aria-label="Capa do portfólio de Erick Abella">
  <defs>
    <linearGradient id="g-erick-abella" x1="0" y1="0" x2="1" y2="1">
      <stop offset="0" stop-color="hsl(53 72% 56%)"/>
      <stop offset="1" stop-color="hsl(115 72% 42%)"/>
    </linearGradient>
    <filter id="s-erick-abella" x="-20%" y="-20%" width="140%" height="140%">
      <feDropShadow dx="0" dy="6" stdDeviation="10" flood-color="#000000" flood-opacity="0.28"/>
    </filter>
  </defs>
  <rect width="640" height="400" fill="url(#g-erick-abella)"/>
  <circle cx="100" cy="324" r="144" fill="hsl(222 85% 78%)" opacity="0.33"/>
  <circle cx="586" cy="179" r="87" fill="hsl(163 85% 76%)" opacity="0.31"/>
  <circle cx="244" cy="60" r="50" fill="hsl(270 85% 69%)" opacity="0.32"/>
  <circle cx="293" cy="264" r="124" fill="hsl(166 85% 78%)" opacity="0.24"/>
  <circle cx="145" cy="169" r="129" fill="hsl(235 85% 69%)" opacity="0.29"/>
  <circle cx="7" cy="265" r="5" fill="#ffffff" opacity="0.61"/>
  <circle cx="53" cy="246" r="2" fill="#ffffff" opacity="0.54"/>
  <circle cx="472" cy="306" r="5" fill="#ffffff" opacity="0.6"/>
  <circle cx="591" cy="358" r="4" fill="#ffffff" opacity="0.31"/>
  <circle cx="507" cy="217" r="5" fill="#ffffff" opacity="0.28"/>
  <circle cx="329" cy="15" r="4" fill="#ffffff" opacity="0.48"/>
  <circle cx="302" cy="130" r="2" fill="#ffffff" opacity="0.64"/>
  <circle cx="274" cy="242" r="3" fill="#ffffff" opacity="0.53"/>
  <circle cx="330" cy="186" r="3" fill="#ffffff" opacity="0.44"/>
  <circle cx="396" cy="264" r="3" fill="#ffffff" opacity="0.33"/>
  <circle cx="228" cy="201" r="4" fill="#ffffff" opacity="0.34"/>
  <circle cx="510" cy="26" r="5" fill="#ffffff" opacity="0.44"/>
  <circle cx="91" cy="335" r="4" fill="#ffffff" opacity="0.3"/>
  <circle cx="246" cy="38" r="3" fill="#ffffff" opacity="0.27"/>
  <text x="320" y="200" text-anchor="middle" dominant-baseline="central"
    font-family="'Trebuchet MS', Verdana, sans-serif" font-weight="800"
    font-size="190" fill="#ffffff" filter="url(#s-erick-abella)">EA</text>
</svg>
