<svg xmlns="http://www.w3.org/2000/svg" viewBox="0 0 640 400" width="640" height="400" role="img" aria-label="Capa do portfólio de Fernando da Silva Dala">
  <defs>
    <linearGradient id="g-fernando-dala" x1="0" y1="0" x2="1" y2="1">
      <stop offset="0" stop-color="hsl(328 72% 56%)"/>
      <stop offset="1" stop-color="hsl(24 72% 42%)"/>
    </linearGradient>
    <filter id="s-fernando-dala" x="-20%" y="-20%" width="140%" height="140%">
      <feDropShadow dx="0" dy="6" stdDeviation="10" flood-color="#000000" flood-opacity="0.28"/>
    </filter>
  </defs>
  <rect width="640" height="400" fill="url(#g-fernando-dala)"/>
  <circle cx="378" cy="328" r="112" fill="hsl(107 85% 64%)" opacity="0.29"/>
  <circle cx="407" cy="252" r="120" fill="hsl(110 85% 64%)" opacity="0.34"/>
  <circle cx="612" cy="335" r="162" fill="hsl(48 85% 65%)" opacity="0.38"/>
  <circle cx="94" cy="287" r="91" fill="hsl(43 85% 71%)" opacity="0.26"/>
  <circle cx="102" cy="378" r="136" fill="hsl(188 85% 69%)" opacity="0.27"/>
  <circle cx="347" cy="368" r="5" fill="#ffffff" opacity="0.49"/>
  <circle cx="576" cy="381" r="7" fill="#ffffff" opacity="0.54"/>
  <circle cx="417" cy="37" r="6" fill="#ffffff" opacity="0.52"/>
  <circle cx="602" cy="311" r="6" fill="#ffffff" opacity="0.59"/>
  <circle cx="348" cy="396" r="5" fill="#ffffff" opacity="0.27"/>
  <circle cx="26" cy="190" r="3" fill="#ffffff" opacity="0.61"/>
  <circle cx="26" cy="109" r="4" fill="#ffffff" opacity="0.47"/>
  <circle cx="562" cy="22" r="2" fill="#ffffff" opacity="0.33"/>
  <circle cx="133" cy="398" r="5" fill="#ffffff" opacity="0.38"/>
  <circle cx="4" cy="287" r="6" fill="#ffffff" opacity="0.55"/>
  <circle cx="289" cy="91" r="5" fill="#ffffff" opacity="0.61"/>
  <circle cx="582" cy="7" r="5" fill="#ffffff" opacity="0.39"/>
  <circle cx="170" cy="312" r="5" fill="#ffffff" opacity="0.6"/>
  <circle cx="106" cy="332" r="3" fill="#ffffff" opacity="0.63"/>
  <text x="320" y="200" text-anchor="middle" dominant-baseline="central"
    font-family="'Trebuchet MS', Verdana, sans-serif" font-weight="800"
    font-size="190" fill="#ffffff" filter="url(#s-fernando-dala)">FD</text>
</svg>
