<svg xmlns="http://www.w3.org/2000/svg" viewBox="0 0 640 400" width="640" height="400" role="img" aria-label="Capa do portfólio de Gabriel Garcia">
  <defs>
    <linearGradient id="g-gabriel-garcia" x1="0" y1="0" x2="1" y2="1">
      <stop offset="0" stop-color="hsl(105 72% 56%)"/>
      <stop offset="1" stop-color="hsl(153 72% 42%)"/>
    </linearGradient>
    <filter id="s-gabriel-garcia" x="-20%" y="-20%" width="140%" height="140%">
      <feDropShadow dx="0" dy="6" stdDeviation="10" flood-color="#000000" flood-opacity="0.28"/>
    </filter>
  </defs>
  <rect width="640" height="400" fill="url(#g-gabriel-garcia)"/>
  <circle cx="309" cy="340" r="83" fill="hsl(197 85% 62%)" opacity="0.3"/>
  <circle cx="425" cy="41" r="66" fill="hsl(204 85% 72%)" opacity="0.36"/>
  <circle cx="259" cy="322" r="65" fill="hsl(13 85% 71%)" opacity="0.23"/>
  <circle cx="92" cy="92" r="56" fill="hsl(71 85% 77%)" opacity="0.19"/>
  <circle cx="588" cy="242" r="98" fill="hsl(32 85% 62%)" opacity="0.28"/>
  <circle cx="591" cy="49" r="3" fill="#ffffff" opacity="0.3"/>
  <circle cx="369" cy="262" r="3" fill="#ffffff" opacity="0.33"/>
  <circle cx="52" cy="5" r="7" fill="#ffffff" opacity="0.35"/>
  <circle cx="395" cy="135" r="3" fill="#ffffff" opacity="0.44"/>
  <circle cx="121" cy="118" r="5" fill="#ffffff" opacity="0.49"/>
  <circle cx="456" cy="201" r="2" fill="#ffffff" opacity="0.56"/>
  <circle cx="202" cy="53" r="3" fill="#ffffff" opacity="0.33"/>
  <circle cx="595" cy="183" r="5" fill="#ffffff" opacity="0.38"/>
  <circle cx="83" cy="296" r="7" fill="#ffffff" opacity="0.27"/>
  <circle cx="526" cy="393" r="3" fill="#ffffff" opacity="0.63"/>
  <circle cx="617" cy="303" r="2" fill="#ffffff" opacity="0.27"/>
  <circle cx="379" cy="195" r="6" fill="#ffffff" opacity="0.28"/>
  <circle cx="479" cy="35" r="3" fill="#ffffff" opacity="0.52"/>
  <circle cx="141" cy="390" r="5" fill="#ffffff" opacity="0.52"/>
  <text x="320" y="200" text-anchor="middle" dominant-baseline="central"
    font-family="'Trebuchet MS', Verdana, sans-serif" font-weight="800"
    font-size="190" fill="#ffffff" filter="url(#s-gabriel-garcia)">GG</text>
</svg>
