<svg xmlns="http://www.w3.org/2000/svg" viewBox="0 0 640 400" width="640" height="400" role="img" aria-label="Capa do portfólio de Henrique">
  <defs>
    <linearGradient id="g-henrique" x1="0" y1="0" x2="1" y2="1">
      <stop offset="0" stop-color="hsl(105 72% 56%)"/>
      <stop offset="1" stop-color="hsl(140 72% 42%)"/>
    </linearGradient>
    <filter id="s-henrique" x="-20%" y="-20%" width="140%" height="140%">
      <feDropShadow dx="0" dy="6" stdDeviation="10" flood-color="#000000" flood-opacity="0.28"/>
    </filter>
  </defs>
  <rect width="640" height="400" fill="url(#g-henrique)"/>
  <circle cx="61" cy="387" r="154" fill="hsl(222 85% 65%)" opacity="0.25"/>
  <circle cx="552" cy="307" r="56" fill="hsl(271 85% 65%)" opacity="0.3"/>
  <circle cx="557" cy="43" r="156" fill="hsl(24 85% 74%)" opacity="0.2"/>
  <circle cx="559" cy="108" r="136" fill="hsl(307 85% 68%)" opacity="0.33"/>
  <circle cx="607" cy="251" r="161" fill="hsl(123 85% 76%)" opacity="0.35"/>
  <circle cx="436" cy="165" r="5" fill="#ffffff" opacity="0.25"/>
  <circle cx="138" cy="281" r="5" fill="#ffffff" opacity="0.32"/>
  <circle cx="151" cy="62" r="5" fill="#ffffff" opacity="0.3"/>
  <circle cx="298" cy="345" r="6" fill="#ffffff" opacity="0.64"/>
  <circle cx="59" cy="80" r="6" fill="#ffffff" opacity="0.54"/>
  <circle cx="165" cy="315" r="5" fill="#ffffff" opacity="0.52"/>
  <circle cx="212" cy="370" r="3" fill="#ffffff" opacity="0.6"/>
  <circle cx="543" cy="279" r="4" fill="#ffffff" opacity="0.56"/>
  <circle cx="55" cy="133" r="6" fill="#ffffff" opacity="0.37"/>
  <circle cx="22" cy="342" r="6" fill="#ffffff" opacity="0.62"/>
  <circle cx="31" cy="17" r="4" fill="#ffffff" opacity="0.37"/>
  <circle cx="58" cy="255" r="7" fill="#ffffff" opacity="0.57"/>
  <circle cx="529" cy="199" r="7" fill="#ffffff" opacity="0.41"/>
  <circle cx="344" cy="44" r="7" fill="#ffffff" opacity="0.4"/>
  <text x="320" y="200" text-anchor="middle" dominant-baseline="central"
    font-family="'Trebuchet MS', Verdana, sans-serif" font-weight="800"
    font-size="190" fill="#ffffff" filter="url(#s-henrique)">HE</text>
</svg>
