<svg xmlns="http://www.w3.org/2000/svg" viewBox="0 0 640 400" width="640" height="400" role="img" aria-label="Capa do portfólio de Julia Rios">
  <defs>
    <linearGradient id="g-julia-rios" x1="0" y1="0" x2="1" y2="1">
      <stop offset="0" stop-color="hsl(20 72% 56%)"/>
      <stop offset="1" stop-color="hsl(84 72% 42%)"/>
    </linearGradient>
    <filter id="s-julia-rios" x="-20%" y="-20%" width="140%" height="140%">
      <feDropShadow dx="0" dy="6" stdDeviation="10" flood-color="#000000" flood-opacity="0.28"/>
    </filter>
  </defs>
  <rect width="640" height="400" fill="url(#g-julia-rios)"/>
  <circle cx="523" cy="244" r="79" fill="hsl(55 85% 72%)" opacity="0.33"/>
  <circle cx="42" cy="40" r="75" fill="hsl(111 85% 63%)" opacity="0.22"/>
  <circle cx="457" cy="342" r="137" fill="hsl(214 85% 76%)" opacity="0.23"/>
  <circle cx="297" cy="373" r="163" fill="hsl(91 85% 62%)" opacity="0.37"/>
  <circle cx="145" cy="299" r="154" fill="hsl(16 85% 79%)" opacity="0.33"/>
  <circle cx="582" cy="77" r="3" fill="#ffffff" opacity="0.33"/>
  <circle cx="202" cy="261" r="3" fill="#ffffff" opacity="0.3"/>
  <circle cx="214" cy="31" r="4" fill="#ffffff" opacity="0.58"/>
  <circle cx="522" cy="5" r="6" fill="#ffffff" opacity="0.55"/>
  <circle cx="44" cy="35" r="6" fill="#ffffff" opacity="0.4"/>
  <circle cx="43" cy="85" r="5" fill="#ffffff" opacity="0.26"/>
  <circle cx="15" cy="289" r="4" fill="#ffffff" opacity="0.37"/>
  <circle cx="335" cy="158" r="3" fill="#ffffff" opacity="0.43"/>
  <circle cx="104" cy="132" r="4" fill="#ffffff" opacity="0.44"/>
  <circle cx="487" cy="213" r="3" fill="#ffffff" opacity="0.64"/>
  <circle cx="596" cy="210" r="4" fill="#ffffff" opacity="0.56"/>
  <circle cx="607" cy="371" r="6" fill="#ffffff" opacity="0.58"/>
  <circle cx="25" cy="132" r="5" fill="#ffffff" opacity="0.32"/>
  <circle cx="545" cy="393" r="4" fill="#ffffff" opacity="0.31"/>
  <text x="320" y="200" text-anchor="middle" dominant-baseline="central"
    font-family="'Trebuchet MS', Verdana, sans-serif" font-weight="800"
    font-size="190" fill="#ffffff" filter="url(#s-julia-rios)">JR</text>
</svg>
