<svg xmlns="http://www.w3.org/2000/svg" viewBox="0 0 640 400" width="640" height="400" role="img" aria-label="Capa do portfólio de Kauã Santos">
  <defs>
    <linearGradient id="g-kaua-santos" x1="0" y1="0" x2="1" y2="1">
      <stop offset="0" stop-color="hsl(263 72% 56%)"/>
      <stop offset="1" stop-color="hsl(300 72% 42%)"/>
    </linearGradient>
    <filter id="s-kaua-santos" x="-20%" y="-20%" width="140%" height="140%">
      <feDropShadow dx="0" dy="6" stdDeviation="10" flood-color="#000000" flood-opacity="0.28"/>
    </filter>
  </defs>
  <rect width="640" height="400" fill="url(#g-kaua-santos)"/>
  <circle cx="463" cy="69" r="91" fill="hsl(187 85% 74%)" opacity="0.23"/>
  <circle cx="557" cy="6" r="115" fill="hsl(177 85% 67%)" opacity="0.29"/>
  <circle cx="610" cy="345" r="135" fill="hsl(224 85% 67%)" opacity="0.27"/>
  <circle cx="172" cy="141" r="50" fill="hsl(171 85% 79%)" opacity="0.35"/>
  <circle cx="547" cy="329" r="149" fill="hsl(200 85% 76%)" opacity="0.21"/>
  <circle cx="356" cy="278" r="7" fill="#ffffff" opacity="0.34"/>
  <circle cx="576" cy="56" r="3" fill="#ffffff" opacity="0.62"/>
  <circle cx="487" cy="143" r="5" fill="#ffffff" opacity="0.5"/>
  <circle cx="49" cy="400" r="4" fill="#ffffff" opacity="0.47"/>
  <circle cx="399" cy="110" r="6" fill="#ffffff" opacity="0.36"/>
  <circle cx="320" cy="95" r="7" fill="#ffffff" opacity="0.29"/>
  <circle cx="43" cy="107" r="2" fill="#ffffff" opacity="0.55"/>
  <circle cx="48" cy="289" r="6" fill="#ffffff" opacity="0.61"/>
  <circle cx="454" cy="398" r="4" fill="#ffffff" opacity="0.26"/>
  <circle cx="479" cy="68" r="4" fill="#ffffff" opacity="0.62"/>
  <circle cx="122" cy="210" r="5" fill="#ffffff" opacity="0.63"/>
  <circle cx="103" cy="2" r="4" fill="#ffffff" opacity="0.46"/>
  <circle cx="332" cy="371" r="3" fill="#ffffff" opacity="0.57"/>
  <circle cx="501" cy="347" r="4" fill="#ffffff" opacity="0.43"/>
  <text x="320" y="200" text-anchor="middle" dominant-baseline="central"
    font-family="'Trebuchet MS', Verdana, sans-serif" font-weight="800"
    font-size="190" fill="#ffffff" filter="url(#s-kaua-santos)">KS</text>
</svg>
