<svg xmlns="http://www.w3.org/2000/svg" viewBox="0 0 640 400" width="640" height="400" role="img" aria-label="Capa do portfólio de Lista de Trabalhos">
  <defs>
    <linearGradient id="g-lista-trabalhos" x1="0" y1="0" x2="1" y2="1">
      <stop offset="0" stop-color="hsl(348 72% 56%)"/>
      <stop offset="1" stop-color="hsl(26 72% 42%)"/>
    </linearGradient>
    <filter id="s-lista-trabalhos" x="-20%" y="-20%" width="140%" height="140%">
      <feDropShadow dx="0" dy="6" stdDeviation="10" flood-color="#000000" flood-opacity="0.28"/>
    </filter>
  </defs>
  <rect width="640" height="400" fill="url(#g-lista-trabalhos)"/>
  <circle cx="486" cy="11" r="162" fill="hsl(294 85% 62%)" opacity="0.32"/>
  <circle cx="513" cy="251" r="121" fill="hsl(236 85% 63%)" opacity="0.2"/>
  <circle cx="103" cy="360" r="143" fill="hsl(175 85% 76%)" opacity="0.38"/>
  <circle cx="237" cy="249" r="116" fill="hsl(135 85% 75%)" opacity="0.28"/>
  <circle cx="229" cy="175" r="97" fill="hsl(104 85% 65%)" opacity="0.29"/>
  <circle cx="630" cy="305" r="6" fill="#ffffff" opacity="0.34"/>
  <circle cx="502" cy="252" r="3" fill="#ffffff" opacity="0.27"/>
  <circle cx="621" cy="58" r="5" fill="#ffffff" opacity="0.58"/>
  <circle cx="611" cy="87" r="6" fill="#ffffff" opacity="0.31"/>
  <circle cx="52" cy="339" r="6" fill="#ffffff" opacity="0.57"/>
  <circle cx="560" cy="316" r="4" fill="#ffffff" opacity="0.65"/>
  <circle cx="342" cy="310" r="7" fill="#ffffff" opacity="0.28"/>
  <circle cx="635" cy="57" r="7" fill="#ffffff" opacity="0.44"/>
  <circle cx="357" cy="233" r="4" fill="#ffffff" opacity="0.54"/>
  <circle cx="138" cy="191" r="7" fill="#ffffff" opacity="0.36"/>
  <circle cx="86" cy="378" r="7" fill="#ffffff" opacity="0.5"/>
  <circle cx="462" cy="4" r="4" fill="#ffffff" opacity="0.53"/>
  <circle cx="3" cy="241" r="4" fill="#ffffff" opacity="0.43"/>
  <circle cx="478" cy="121" r="7" fill="#ffffff" opacity="0.55"/>
  <text x="320" y="200" text-anchor="middle" dominant-baseline="central"
    font-family="'Trebuchet MS', Verdana, sans-serif" font-weight="800"
    font-size="190" fill="#ffffff" filter="url(#s-lista-trabalhos)">LT</text>
</svg>
