<svg xmlns="http://www.w3.org/2000/svg" viewBox="0 0 640 400" width="640" height="400" role="img" aria-label="Capa do portfólio de Lorenzo Ximendes">
  <defs>
    <linearGradient id="g-lorenzo-ximendes" x1="0" y1="0" x2="1" y2="1">
      <stop offset="0" stop-color="hsl(243 72% 56%)"/>
      <stop offset="1" stop-color="hsl(313 72% 42%)"/>
    </linearGradient>
    <filter id="s-lorenzo-ximendes" x="-20%" y="-20%" width="140%" height="140%">
      <feDropShadow dx="0" dy="6" stdDeviation="10" flood-color="#000000" flood-opacity="0.28"/>
    </filter>
  </defs>
  <rect width="640" height="400" fill="url(#g-lorenzo-ximendes)"/>
  <circle cx="235" cy="94" r="144" fill="hsl(216 85% 74%)" opacity="0.34"/>
  <circle cx="574" cy="325" r="71" fill="hsl(202 85% 77%)" opacity="0.31"/>
  <circle cx="96" cy="340" r="101" fill="hsl(281 85% 77%)" opacity="0.22"/>
  <circle cx="590" cy="142" r="129" fill="hsl(46 85% 76%)" opacity="0.22"/>
  <circle cx="56" cy="266" r="150" fill="hsl(272 85% 78%)" opacity="0.4"/>
  <circle cx="517" cy="85" r="4" fill="#ffffff" opacity="0.26"/>
  <circle cx="25" cy="389" r="5" fill="#ffffff" opacity="0.25"/>
  <circle cx="200" cy="255" r="2" fill="#ffffff" opacity="0.26"/>
  <circle cx="614" cy="334" r="7" fill="#ffffff" opacity="0.58"/>
  <circle cx="122" cy="87" r="5" fill="#ffffff" opacity="0.6"/>
  <circle cx="537" cy="333" r="4" fill="#ffffff" opacity="0.28"/>
  <circle cx="570" cy="317" r="5" fill="#ffffff" opacity="0.25"/>
  <circle cx="105" cy="328" r="5" fill="#ffffff" opacity="0.27"/>
  <circle cx="315" cy="244" r="2" fill="#ffffff" opacity="0.39"/>
  <circle cx="565" cy="19" r="4" fill="#ffffff" opacity="0.56"/>
  <circle cx="98" cy="110" r="3" fill="#ffffff" opacity="0.43"/>
  <circle cx="90" cy="359" r="4" fill="#ffffff" opacity="0.62"/>
  <circle cx="110" cy="131" r="4" fill="#ffffff" opacity="0.44"/>
  <circle cx="31" cy="30" r="4" fill="#ffffff" opacity="0.28"/>
  <text x="320" y="200" text-anchor="middle" dominant-baseline="central"
    font-family="'Trebuchet MS', Verdana, sans-serif" font-weight="800"
    font-size="190" fill="#ffffff" filter="url(#s-lorenzo-ximendes)">LX</text>
</svg>
