<svg xmlns="http://www.w3.org/2000/svg" viewBox="0 0 640 400" width="640" height="400" role="img" aria-label="Capa do portfólio de Lorena Christello">
  <defs>
    <linearGradient id="g-lorena-christello" x1="0" y1="0" x2="1" y2="1">
      <stop offset="0" stop-color="hsl(158 72% 56%)"/>
      <stop offset="1" stop-color="hsl(229 72% 42%)"/>
    </linearGradient>
    <filter id="s-lorena-christello" x="-20%" y="-20%" width="140%" height="140%">
      <feDropShadow dx="0" dy="6" stdDeviation="10" flood-color="#000000" flood-opacity="0.28"/>
    </filter>
  </defs>
  <rect width="640" height="400" fill="url(#g-lorena-christello)"/>
  <circle cx="412" cy="39" r="161" fill="hsl(188 85% 68%)" opacity="0.26"/>
  <circle cx="282" cy="134" r="166" fill="hsl(206 85% 76%)" opacity="0.2"/>
  <circle cx="119" cy="147" r="89" fill="hsl(342 85% 64%)" opacity="0.22"/>
  <circle cx="303" cy="93" r="96" fill="hsl(139 85% 77%)" opacity="0.21"/>
  <circle cx="436" cy="55" r="104" fill="hsl(131 85% 67%)" opacity="0.31"/>
  <circle cx="521" cy="4" r="4" fill="#ffffff" opacity="0.49"/>
  <circle cx="31" cy="369" r="4" fill="#ffffff" opacity="0.5"/>
  <circle cx="287" cy="10" r="3" fill="#ffffff" opacity="0.59"/>
  <circle cx="1" cy="89" r="4" fill="#ffffff" opacity="0.4"/>
  <circle cx="112" cy="284" r="7" fill="#ffffff" opacity="0.56"/>
  <circle cx="459" cy="320" r="6" fill="#ffffff" opacity="0.46"/>
  <circle cx="2" cy="362" r="4" fill="#ffffff" opacity="0.25"/>
  <circle cx="94" cy="183" r="7" fill="#ffffff" opacity="0.49"/>
  <circle cx="493" cy="51" r="5" fill="#ffffff" opacity="0.27"/>
  <circle cx="201" cy="333" r="6" fill="#ffffff" opacity="0.44"/>
  <circle cx="116" cy="367" r="6" fill="#ffffff" opacity="0.38"/>
  <circle cx="255" cy="353" r="4" fill="#ffffff" opacity="0.5"/>
  <circle cx="281" cy="145" r="4" fill="#ffffff" opacity="0.36"/>
  <circle cx="500" cy="275" r="3" fill="#ffffff" opacity="0.4"/>
  <text x="320" y="200" text-anchor="middle" dominant-baseline="central"
    font-family="'Trebuchet MS', Verdana, sans-serif" font-weight="800"
    font-size="190" fill="#ffffff" filter="url(#s-lorena-christello)">LC</text>
</svg>
