<svg xmlns="http://www.w3.org/2000/svg" viewBox="0 0 640 400" width="640" height="400" role="img" aria-label="Capa do portfólio de Lucas Viana de Freitas">
  <defs>
    <linearGradient id="g-lucas-viana" x1="0" y1="0" x2="1" y2="1">
      <stop offset="0" stop-color="hsl(20 72% 56%)"/>
      <stop offset="1" stop-color="hsl(61 72% 42%)"/>
    </linearGradient>
    <filter id="s-lucas-viana" x="-20%" y="-20%" width="140%" height="140%">
      <feDropShadow dx="0" dy="6" stdDeviation="10" flood-color="#000000" flood-opacity="0.28"/>
    </filter>
  </defs>
  <rect width="640" height="400" fill="url(#g-lucas-viana)"/>
  <circle cx="223" cy="208" r="138" fill="hsl(349 85% 71%)" opacity="0.36"/>
  <circle cx="458" cy="364" r="159" fill="hsl(322 85% 70%)" opacity="0.24"/>
  <circle cx="389" cy="304" r="123" fill="hsl(282 85% 70%)" opacity="0.23"/>
  <circle cx="67" cy="320" r="160" fill="hsl(311 85% 69%)" opacity="0.39"/>
  <circle cx="238" cy="390" r="89" fill="hsl(64 85% 74%)" opacity="0.35"/>
  <circle cx="215" cy="223" r="6" fill="#ffffff" opacity="0.54"/>
  <circle cx="490" cy="233" r="6" fill="#ffffff" opacity="0.26"/>
  <circle cx="622" cy="174" r="7" fill="#ffffff" opacity="0.45"/>
  <circle cx="16" cy="250" r="5" fill="#ffffff" opacity="0.34"/>
  <circle cx="224" cy="286" r="2" fill="#ffffff" opacity="0.53"/>
  <circle cx="453" cy="19" r="2" fill="#ffffff" opacity="0.51"/>
  <circle cx="536" cy="323" r="6" fill="#ffffff" opacity="0.44"/>
  <circle cx="588" cy="391" r="2" fill="#ffffff" opacity="0.62"/>
  <circle cx="479" cy="360" r="6" fill="#ffffff" opacity="0.56"/>
  <circle cx="52" cy="317" r="3" fill="#ffffff" opacity="0.39"/>
  <circle cx="10" cy="396" r="6" fill="#ffffff" opacity="0.45"/>
  <circle cx="449" cy="256" r="2" fill="#ffffff" opacity="0.56"/>
  <circle cx="50" cy="145" r="2" fill="#ffffff" opacity="0.36"/>
  <circle cx="139" cy="214" r="4" fill="#ffffff" opacity="0.42"/>
  <text x="320" y="200" text-anchor="middle" dominant-baseline="central"
    font-family="'Trebuchet MS', Verdana, sans-serif" font-weight="800"
    font-size="190" fill="#ffffff" filter="url(#s-lucas-viana)">LV</text>
</svg>
