<svg xmlns="http://www.w3.org/2000/svg" viewBox="0 0 640 400" width="640" height="400" role="img" aria-label="Capa do portfólio de Maria Luisa Frandalozzo">
  <defs>
    <linearGradient id="g-maria-frandalozzo" x1="0" y1="0" x2="1" y2="1">
      <stop offset="0" stop-color="hsl(210 72% 56%)"/>
      <stop offset="1" stop-color="hsl(273 72% 42%)"/>
    </linearGradient>
    <filter id="s-maria-frandalozzo" x="-20%" y="-20%" width="140%" height="140%">
      <feDropShadow dx="0" dy="6" stdDeviation="10" flood-color="#000000" flood-opacity="0.28"/>
    </filter>
  </defs>
  <rect width="640" height="400" fill="url(#g-maria-frandalozzo)"/>
  <circle cx="366" cy="96" r="139" fill="hsl(19 85% 77%)" opacity="0.29"/>
  <circle cx="635" cy="327" r="126" fill="hsl(347 85% 63%)" opacity="0.34"/>
  <circle cx="87" cy="233" r="97" fill="hsl(3 85% 79%)" opacity="0.25"/>
  <circle cx="617" cy="149" r="51" fill="hsl(140 85% 65%)" opacity="0.2"/>
  <circle cx="437" cy="4" r="155" fill="hsl(341 85% 72%)" opacity="0.33"/>
  <circle cx="386" cy="162" r="4" fill="#ffffff" opacity="0.25"/>
  <circle cx="256" cy="17" r="2" fill="#ffffff" opacity="0.61"/>
  <circle cx="144" cy="5" r="4" fill="#ffffff" opacity="0.53"/>
  <circle cx="378" cy="136" r="5" fill="#ffffff" opacity="0.61"/>
  <circle cx="399" cy="271" r="6" fill="#ffffff" opacity="0.25"/>
  <circle cx="70" cy="131" r="6" fill="#ffffff" opacity="0.26"/>
  <circle cx="563" cy="135" r="3" fill="#ffffff" opacity="0.41"/>
  <circle cx="240" cy="2" r="4" fill="#ffffff" opacity="0.55"/>
  <circle cx="484" cy="15" r="4" fill="#ffffff" opacity="0.63"/>
  <circle cx="287" cy="229" r="5" fill="#ffffff" opacity="0.57"/>
  <circle cx="627" cy="353" r="5" fill="#ffffff" opacity="0.34"/>
  <circle cx="168" cy="351" r="2" fill="#ffffff" opacity="0.53"/>
  <circle cx="468" cy="135" r="4" fill="#ffffff" opacity="0.41"/>
  <circle cx="471" cy="369" r="3" fill="#ffffff" opacity="0.3"/>
  <text x="320" y="200" text-anchor="middle" dominant-baseline="central"
    font-family="'Trebuchet MS', Verdana, sans-serif" font-weight="800"
    font-size="190" fill="#ffffff" filter="url(#s-maria-frandalozzo)">ML</text>
</svg>
