<svg xmlns="http://www.w3.org/2000/svg" viewBox="0 0 640 400" width="640" height="400" role="img" aria-label="Capa do portfólio de Matheus Leal Peres">
  <defs>
    <linearGradient id="g-matheus-leal" x1="0" y1="0" x2="1" y2="1">
      <stop offset="0" stop-color="hsl(158 72% 56%)"/>
      <stop offset="1" stop-color="hsl(195 72% 42%)"/>
    </linearGradient>
    <filter id="s-matheus-leal" x="-20%" y="-20%" width="140%" height="140%">
      <feDropShadow dx="0" dy="6" stdDeviation="10" flood-color="#000000" flood-opacity="0.28"/>
    </filter>
  </defs>
  <rect width="640" height="400" fill="url(#g-matheus-leal)"/>
  <circle cx="7" cy="100" r="108" fill="hsl(261 85% 75%)" opacity="0.25"/>
  <circle cx="526" cy="285" r="72" fill="hsl(282 85% 68%)" opacity="0.37"/>
  <circle cx="611" cy="146" r="110" fill="hsl(123 85% 66%)" opacity="0.27"/>
  <circle cx="218" cy="54" r="105" fill="hsl(49 85% 76%)" opacity="0.39"/>
  <circle cx="299" cy="369" r="157" fill="hsl(62 85% 71%)" opacity="0.34"/>
  <circle cx="411" cy="296" r="5" fill="#ffffff" opacity="0.26"/>
  <circle cx="279" cy="280" r="6" fill="#ffffff" opacity="0.47"/>
  <circle cx="523" cy="295" r="5" fill="#ffffff" opacity="0.25"/>
  <circle cx="385" cy="151" r="2" fill="#ffffff" opacity="0.43"/>
  <circle cx="371" cy="273" r="5" fill="#ffffff" opacity="0.57"/>
  <circle cx="565" cy="132" r="2" fill="#ffffff" opacity="0.44"/>
  <circle cx="593" cy="37" r="5" fill="#ffffff" opacity="0.32"/>
  <circle cx="453" cy="368" r="6" fill="#ffffff" opacity="0.57"/>
  <circle cx="326" cy="332" r="3" fill="#ffffff" opacity="0.35"/>
  <circle cx="409" cy="47" r="3" fill="#ffffff" opacity="0.52"/>
  <circle cx="176" cy="18" r="5" fill="#ffffff" opacity="0.54"/>
  <circle cx="385" cy="41" r="5" fill="#ffffff" opacity="0.37"/>
  <circle cx="492" cy="381" r="3" fill="#ffffff" opacity="0.52"/>
  <circle cx="491" cy="203" r="3" fill="#ffffff" opacity="0.39"/>
  <text x="320" y="200" text-anchor="middle" dominant-baseline="central"
    font-family="'Trebuchet MS', Verdana, sans-serif" font-weight="800"
    font-size="190" fill="#ffffff" filter="url(#s-matheus-leal)">ML</text>
</svg>
