<svg xmlns="http://www.w3.org/2000/svg" viewBox="0 0 640 400" width="640" height="400" role="img" aria-label="Capa do portfólio de Pedro Henrique">
  <defs>
    <linearGradient id="g-pedro-henrique" x1="0" y1="0" x2="1" y2="1">
      <stop offset="0" stop-color="hsl(73 72% 56%)"/>
      <stop offset="1" stop-color="hsl(146 72% 42%)"/>
    </linearGradient>
    <filter id="s-pedro-henrique" x="-20%" y="-20%" width="140%" height="140%">
      <feDropShadow dx="0" dy="6" stdDeviation="10" flood-color="#000000" flood-opacity="0.28"/>
    </filter>
  </defs>
  <rect width="640" height="400" fill="url(#g-pedro-henrique)"/>
  <circle cx="160" cy="282" r="53" fill="hsl(161 85% 65%)" opacity="0.24"/>
  <circle cx="182" cy="199" r="83" fill="hsl(10 85% 71%)" opacity="0.19"/>
  <circle cx="98" cy="68" r="85" fill="hsl(266 85% 73%)" opacity="0.21"/>
  <circle cx="354" cy="24" r="107" fill="hsl(173 85% 69%)" opacity="0.19"/>
  <circle cx="592" cy="386" r="56" fill="hsl(265 85% 70%)" opacity="0.2"/>
  <circle cx="587" cy="29" r="6" fill="#ffffff" opacity="0.3"/>
  <circle cx="549" cy="169" r="5" fill="#ffffff" opacity="0.41"/>
  <circle cx="465" cy="106" r="4" fill="#ffffff" opacity="0.41"/>
  <circle cx="231" cy="115" r="4" fill="#ffffff" opacity="0.42"/>
  <circle cx="439" cy="354" r="6" fill="#ffffff" opacity="0.39"/>
  <circle cx="357" cy="245" r="6" fill="#ffffff" opacity="0.35"/>
  <circle cx="112" cy="382" r="5" fill="#ffffff" opacity="0.5"/>
  <circle cx="1" cy="334" r="7" fill="#ffffff" opacity="0.55"/>
  <circle cx="263" cy="391" r="4" fill="#ffffff" opacity="0.58"/>
  <circle cx="274" cy="340" r="4" fill="#ffffff" opacity="0.63"/>
  <circle cx="102" cy="372" r="6" fill="#ffffff" opacity="0.64"/>
  <circle cx="60" cy="395" r="2" fill="#ffffff" opacity="0.29"/>
  <circle cx="61" cy="189" r="6" fill="#ffffff" opacity="0.38"/>
  <circle cx="424" cy="240" r="6" fill="#ffffff" opacity="0.31"/>
  <text x="320" y="200" text-anchor="middle" dominant-baseline="central"
    font-family="'Trebuchet MS', Verdana, sans-serif" font-weight="800"
    font-size="190" fill="#ffffff" filter="url(#s-pedro-henrique)">PH</text>
</svg>
