<svg xmlns="http://www.w3.org/2000/svg" viewBox="0 0 640 400" width="640" height="400" role="img" aria-label="Capa do portfólio de Pedro Amaral">
  <defs>
    <linearGradient id="g-pedro-amaral" x1="0" y1="0" x2="1" y2="1">
      <stop offset="0" stop-color="hsl(125 72% 56%)"/>
      <stop offset="1" stop-color="hsl(171 72% 42%)"/>
    </linearGradient>
    <filter id="s-pedro-amaral" x="-20%" y="-20%" width="140%" height="140%">
      <feDropShadow dx="0" dy="6" stdDeviation="10" flood-color="#000000" flood-opacity="0.28"/>
    </filter>
  </defs>
  <rect width="640" height="400" fill="url(#g-pedro-amaral)"/>
  <circle cx="374" cy="309" r="133" fill="hsl(216 85% 69%)" opacity="0.26"/>
  <circle cx="475" cy="317" r="65" fill="hsl(188 85% 66%)" opacity="0.22"/>
  <circle cx="383" cy="330" r="117" fill="hsl(320 85% 78%)" opacity="0.18"/>
  <circle cx="584" cy="150" r="132" fill="hsl(191 85% 71%)" opacity="0.27"/>
  <circle cx="148" cy="349" r="64" fill="hsl(209 85% 75%)" opacity="0.23"/>
  <circle cx="14" cy="94" r="6" fill="#ffffff" opacity="0.65"/>
  <circle cx="332" cy="28" r="3" fill="#ffffff" opacity="0.62"/>
  <circle cx="557" cy="66" r="2" fill="#ffffff" opacity="0.29"/>
  <circle cx="488" cy="92" r="6" fill="#ffffff" opacity="0.38"/>
  <circle cx="546" cy="62" r="5" fill="#ffffff" opacity="0.53"/>
  <circle cx="339" cy="74" r="7" fill="#ffffff" opacity="0.35"/>
  <circle cx="216" cy="397" r="4" fill="#ffffff" opacity="0.56"/>
  <circle cx="81" cy="150" r="4" fill="#ffffff" opacity="0.44"/>
  <circle cx="49" cy="348" r="3" fill="#ffffff" opacity="0.41"/>
  <circle cx="451" cy="270" r="5" fill="#ffffff" opacity="0.51"/>
  <circle cx="9" cy="200" r="5" fill="#ffffff" opacity="0.52"/>
  <circle cx="460" cy="187" r="4" fill="#ffffff" opacity="0.57"/>
  <circle cx="159" cy="395" r="3" fill="#ffffff" opacity="0.43"/>
  <circle cx="556" cy="197" r="5" fill="#ffffff" opacity="0.37"/>
  <text x="320" y="200" text-anchor="middle" dominant-baseline="central"
    font-family="'Trebuchet MS', Verdana, sans-serif" font-weight="800"
    font-size="190" fill="#ffffff" filter="url(#s-pedro-amaral)">PA</text>
</svg>
