<svg xmlns="http://www.w3.org/2000/svg" viewBox="0 0 640 400" width="640" height="400" role="img" aria-label="Capa do portfólio de Portfólio sem identificação">
  <defs>
    <linearGradient id="g-portfolio-sem-id" x1="0" y1="0" x2="1" y2="1">
      <stop offset="0" stop-color="hsl(230 12% 60%)"/>
      <stop offset="1" stop-color="hsl(294 12% 46%)"/>
    </linearGradient>
    <filter id="s-portfolio-sem-id" x="-20%" y="-20%" width="140%" height="140%">
      <feDropShadow dx="0" dy="6" stdDeviation="10" flood-color="#000000" flood-opacity="0.28"/>
    </filter>
  </defs>
  <rect width="640" height="400" fill="url(#g-portfolio-sem-id)"/>
  <circle cx="601" cy="334" r="89" fill="hsl(230 8% 70%)" opacity="0.27"/>
  <circle cx="516" cy="193" r="103" fill="hsl(230 8% 74%)" opacity="0.33"/>
  <circle cx="570" cy="266" r="169" fill="hsl(230 8% 77%)" opacity="0.3"/>
  <circle cx="440" cy="361" r="149" fill="hsl(230 8% 81%)" opacity="0.32"/>
  <circle cx="540" cy="105" r="147" fill="hsl(230 8% 71%)" opacity="0.28"/>
  <circle cx="299" cy="358" r="5" fill="#ffffff" opacity="0.33"/>
  <circle cx="513" cy="331" r="4" fill="#ffffff" opacity="0.64"/>
  <circle cx="73" cy="114" r="7" fill="#ffffff" opacity="0.55"/>
  <circle cx="98" cy="184" r="5" fill="#ffffff" opacity="0.56"/>
  <circle cx="360" cy="73" r="4" fill="#ffffff" opacity="0.26"/>
  <circle cx="163" cy="282" r="5" fill="#ffffff" opacity="0.43"/>
  <circle cx="349" cy="84" r="3" fill="#ffffff" opacity="0.42"/>
  <circle cx="31" cy="4" r="6" fill="#ffffff" opacity="0.57"/>
  <circle cx="291" cy="252" r="5" fill="#ffffff" opacity="0.54"/>
  <circle cx="583" cy="31" r="3" fill="#ffffff" opacity="0.58"/>
  <circle cx="22" cy="87" r="3" fill="#ffffff" opacity="0.32"/>
  <circle cx="488" cy="131" r="3" fill="#ffffff" opacity="0.41"/>
  <circle cx="422" cy="56" r="5" fill="#ffffff" opacity="0.44"/>
  <circle cx="539" cy="361" r="5" fill="#ffffff" opacity="0.62"/>
  <text x="320" y="200" text-anchor="middle" dominant-baseline="central"
    font-family="'Trebuchet MS', Verdana, sans-serif" font-weight="800"
    font-size="190" fill="#ffffff" filter="url(#s-portfolio-sem-id)">?</text>
</svg>
