<svg xmlns="http://www.w3.org/2000/svg" viewBox="0 0 640 400" width="640" height="400" role="img" aria-label="Capa do portfólio de Vinícius Moletta">
  <defs>
    <linearGradient id="g-vinicius-moletta" x1="0" y1="0" x2="1" y2="1">
      <stop offset="0" stop-color="hsl(40 72% 56%)"/>
      <stop offset="1" stop-color="hsl(103 72% 42%)"/>
    </linearGradient>
    <filter id="s-vinicius-moletta" x="-20%" y="-20%" width="140%" height="140%">
      <feDropShadow dx="0" dy="6" stdDeviation="10" flood-color="#000000" flood-opacity="0.28"/>
    </filter>
  </defs>
  <rect width="640" height="400" fill="url(#g-vinicius-moletta)"/>
  <circle cx="295" cy="154" r="80" fill="hsl(245 85% 69%)" opacity="0.19"/>
  <circle cx="562" cy="274" r="164" fill="hsl(0 85% 72%)" opacity="0.29"/>
  <circle cx="253" cy="397" r="168" fill="hsl(333 85% 76%)" opacity="0.34"/>
  <circle cx="547" cy="29" r="54" fill="hsl(109 85% 79%)" opacity="0.38"/>
  <circle cx="252" cy="261" r="65" fill="hsl(16 85% 68%)" opacity="0.4"/>
  <circle cx="558" cy="162" r="5" fill="#ffffff" opacity="0.52"/>
  <circle cx="196" cy="115" r="4" fill="#ffffff" opacity="0.63"/>
  <circle cx="332" cy="244" r="2" fill="#ffffff" opacity="0.32"/>
  <circle cx="10" cy="349" r="3" fill="#ffffff" opacity="0.4"/>
  <circle cx="158" cy="47" r="3" fill="#ffffff" opacity="0.33"/>
  <circle cx="481" cy="77" r="5" fill="#ffffff" opacity="0.61"/>
  <circle cx="530" cy="344" r="6" fill="#ffffff" opacity="0.48"/>
  <circle cx="607" cy="309" r="5" fill="#ffffff" opacity="0.29"/>
  <circle cx="602" cy="223" r="6" fill="#ffffff" opacity="0.61"/>
  <circle cx="246" cy="208" r="3" fill="#ffffff" opacity="0.51"/>
  <circle cx="217" cy="4" r="5" fill="#ffffff" opacity="0.36"/>
  <circle cx="80" cy="46" r="4" fill="#ffffff" opacity="0.41"/>
  <circle cx="623" cy="322" r="6" fill="#ffffff" opacity="0.42"/>
  <circle cx="636" cy="20" r="4" fill="#ffffff" opacity="0.55"/>
  <text x="320" y="200" text-anchor="middle" dominant-baseline="central"
    font-family="'Trebuchet MS', Verdana, sans-serif" font-weight="800"
    font-size="190" fill="#ffffff" filter="url(#s-vinicius-moletta)">VM</text>
</svg>
